<svg width="39" height="39" viewBox="0 0 39 39" fill="none" xmlns="http://www.w3.org/2000/svg">
<path d="M13 4.875C8.51338 4.875 4.875 8.51338 4.875 13V26C4.875 30.4866 8.51338 34.125 13 34.125H26C30.4866 34.125 34.125 30.4866 34.125 26V13C34.125 8.51338 30.4866 4.875 26 4.875H13ZM29.25 8.125C30.147 8.125 30.875 8.853 30.875 9.75C30.875 10.647 30.147 11.375 29.25 11.375C28.353 11.375 27.625 10.647 27.625 9.75C27.625 8.853 28.353 8.125 29.25 8.125ZM19.5 11.375C23.9866 11.375 27.625 15.0134 27.625 19.5C27.625 23.9866 23.9866 27.625 19.5 27.625C15.0134 27.625 11.375 23.9866 11.375 19.5C11.375 15.0134 15.0134 11.375 19.5 11.375ZM19.5 14.625C18.2071 14.625 16.9671 15.1386 16.0529 16.0529C15.1386 16.9671 14.625 18.2071 14.625 19.5C14.625 20.7929 15.1386 22.0329 16.0529 22.9471C16.9671 23.8614 18.2071 24.375 19.5 24.375C20.7929 24.375 22.0329 23.8614 22.9471 22.9471C23.8614 22.0329 24.375 20.7929 24.375 19.5C24.375 18.2071 23.8614 16.9671 22.9471 16.0529C22.0329 15.1386 20.7929 14.625 19.5 14.625Z" fill="#00923F"/>
</svg>
