<svg width="39" height="39" viewBox="0 0 39 39" fill="none" xmlns="http://www.w3.org/2000/svg">
<path d="M30.875 4.875H8.125C6.32937 4.875 4.875 6.32937 4.875 8.125V30.875C4.875 32.6706 6.32937 34.125 8.125 34.125H30.875C32.6706 34.125 34.125 32.6706 34.125 30.875V8.125C34.125 6.32937 32.6706 4.875 30.875 4.875ZM14.625 27.625H10.5251V16.25H14.625V27.625ZM12.5027 14.1651C11.2499 14.1651 10.413 13.3299 10.413 12.2151C10.413 11.1004 11.2482 10.2651 12.6409 10.2651C13.8937 10.2651 14.7306 11.1004 14.7306 12.2151C14.7306 13.3299 13.8954 14.1651 12.5027 14.1651ZM29.25 27.625H25.2817V21.4077C25.2817 19.6885 24.2239 19.292 23.8274 19.292C23.4309 19.292 22.1081 19.5569 22.1081 21.4077C22.1081 21.6726 22.1081 27.625 22.1081 27.625H18.0082V16.25H22.1081V17.8376C22.6362 16.9114 23.6941 16.25 25.6783 16.25C27.6624 16.25 29.25 17.8376 29.25 21.4077V27.625Z" fill="#00923F"/>
</svg>
