<svg width="40" height="40" viewBox="0 0 40 40" fill="none" xmlns="http://www.w3.org/2000/svg">
<path d="M20 4.06799C11.0244 4.06799 3.75 11.3424 3.75 20.318C3.75 29.2936 11.0244 36.568 20 36.568C28.9756 36.568 36.25 29.2936 36.25 20.318C36.25 11.3424 28.9756 4.06799 20 4.06799ZM20 7.31799C27.1665 7.31799 33 13.1515 33 20.318C33 21.0797 32.9238 21.8287 32.7969 22.5524C32.397 22.4635 31.8066 22.3556 31.1211 22.3492C30.6133 22.3429 29.9785 22.4254 29.4453 22.5016C29.6294 21.9366 29.75 21.3146 29.75 20.6735C29.75 19.1119 28.9883 17.6583 27.7695 16.4586C28.106 15.2081 28.436 13.0626 27.5664 12.193C24.9956 12.193 23.5737 14.0275 23.5039 14.1227C22.7105 13.9323 21.8916 13.818 21.0156 13.818C19.8921 13.818 18.8193 14.0211 17.8164 14.3258L18.1211 14.0719C18.1211 14.0719 16.6929 12.0914 14.0586 12.0914C13.1382 13.0182 13.5571 15.3668 13.9063 16.5602C12.6621 17.7472 11.875 19.15 11.875 20.6735C11.875 21.2067 12.002 21.7145 12.1289 22.1969C11.6782 22.1461 10.0532 21.9938 9.38672 21.9938C8.79639 21.9938 7.88233 22.1334 7.15234 22.2985C7.05078 21.651 7 20.9908 7 20.318C7 13.1515 12.8335 7.31799 20 7.31799ZM9.38672 22.4C10.0278 22.4 11.9766 22.6285 12.2305 22.6539C12.2622 22.7428 12.2939 22.8253 12.332 22.9078C11.6338 22.8444 10.2817 22.7491 9.38672 22.8571C8.79004 22.9269 8.02832 23.1427 7.35547 23.3141C7.30469 23.111 7.24121 22.9142 7.20313 22.7047C7.91406 22.5524 8.84717 22.4 9.38672 22.4ZM31.1211 22.7555C31.7686 22.7618 32.3589 22.8698 32.7461 22.9586C32.7271 23.0665 32.6699 23.1554 32.6445 23.2633C32.2319 23.1681 31.5527 23.0284 30.7656 23.0094C30.3848 23.0031 29.7754 23.0221 29.2422 23.0602C29.2676 23.0094 29.2739 22.9586 29.293 22.9078C29.8452 22.8317 30.5498 22.7491 31.1211 22.7555ZM10.4023 23.2125C11.3164 23.2189 12.1733 23.2824 12.5352 23.3141C13.3857 24.901 15.106 26.0753 17.7656 26.5641C17.1118 26.9259 16.5278 27.4337 16.0898 28.0367C15.709 28.0685 15.3091 28.0875 14.9219 28.0875C13.792 28.0875 13.0874 27.0783 12.4844 26.2086C11.875 25.339 11.126 25.2438 10.707 25.193C10.2817 25.1422 10.1357 25.3834 10.3516 25.5485C11.5894 26.5006 12.0337 27.6305 12.5352 28.6461C12.9858 29.5602 13.9316 30.068 14.9727 30.068H15.1758C15.144 30.2457 15.125 30.4108 15.125 30.5758V32.3532C11.3735 30.8361 8.51709 27.6305 7.45703 23.6696C8.12354 23.5045 8.87256 23.3331 9.4375 23.2633C9.69775 23.2316 10.0278 23.2062 10.4023 23.2125ZM30.7656 23.4157C31.4956 23.4347 32.1431 23.5743 32.543 23.6696C31.648 27.0338 29.439 29.8331 26.5 31.5407V30.5758C26.5 29.192 25.4082 27.4147 23.8594 26.5641C26.4302 26.0944 28.106 24.9708 28.9883 23.4664C29.604 23.422 30.3276 23.403 30.7656 23.4157ZM20.8125 30.068C21.2568 30.068 21.625 30.4362 21.625 30.8805V33.2164C21.0918 33.2863 20.5522 33.318 20 33.318V30.8805C20 30.4362 20.3682 30.068 20.8125 30.068ZM17.5625 31.693C18.0068 31.693 18.375 32.0612 18.375 32.5055V33.2164C17.8291 33.1466 17.2769 33.045 16.75 32.9117V32.5055C16.75 32.0612 17.1182 31.693 17.5625 31.693ZM24.0625 31.693C24.4561 31.693 24.7988 31.9786 24.875 32.3532C24.3481 32.569 23.8086 32.7658 23.25 32.9117V32.5055C23.25 32.0612 23.6182 31.693 24.0625 31.693Z" fill="#74A9DB"/>
</svg>
