<svg width="40" height="40" viewBox="0 0 40 40" fill="none" xmlns="http://www.w3.org/2000/svg">
<path d="M13.5 5.69299C9.01338 5.69299 5.375 9.33137 5.375 13.818V26.818C5.375 31.3046 9.01338 34.943 13.5 34.943H26.5C30.9866 34.943 34.625 31.3046 34.625 26.818V13.818C34.625 9.33137 30.9866 5.69299 26.5 5.69299H13.5ZM29.75 8.94299C30.647 8.94299 31.375 9.67099 31.375 10.568C31.375 11.465 30.647 12.193 29.75 12.193C28.853 12.193 28.125 11.465 28.125 10.568C28.125 9.67099 28.853 8.94299 29.75 8.94299ZM20 12.193C24.4866 12.193 28.125 15.8314 28.125 20.318C28.125 24.8046 24.4866 28.443 20 28.443C15.5134 28.443 11.875 24.8046 11.875 20.318C11.875 15.8314 15.5134 12.193 20 12.193ZM20 15.443C18.7071 15.443 17.4671 15.9566 16.5529 16.8708C15.6386 17.7851 15.125 19.0251 15.125 20.318C15.125 21.6109 15.6386 22.8509 16.5529 23.7651C17.4671 24.6794 18.7071 25.193 20 25.193C21.2929 25.193 22.5329 24.6794 23.4471 23.7651C24.3614 22.8509 24.875 21.6109 24.875 20.318C24.875 19.0251 24.3614 17.7851 23.4471 16.8708C22.5329 15.9566 21.2929 15.443 20 15.443Z" fill="#74A9DB"/>
</svg>
