<svg width="40" height="40" viewBox="0 0 40 40" fill="none" xmlns="http://www.w3.org/2000/svg">
<path d="M31.375 5.69299H8.625C6.82938 5.69299 5.375 7.14737 5.375 8.94299V31.693C5.375 33.4886 6.82938 34.943 8.625 34.943H31.375C33.1706 34.943 34.625 33.4886 34.625 31.693V8.94299C34.625 7.14737 33.1706 5.69299 31.375 5.69299ZM15.125 28.443H11.0251V17.068H15.125V28.443ZM13.0027 14.9831C11.7499 14.9831 10.913 14.1479 10.913 13.0331C10.913 11.9184 11.7482 11.0831 13.1409 11.0831C14.3938 11.0831 15.2306 11.9184 15.2306 13.0331C15.2306 14.1479 14.3954 14.9831 13.0027 14.9831ZM29.75 28.443H25.7817V22.2257C25.7817 20.5065 24.7239 20.11 24.3274 20.11C23.9309 20.11 22.6081 20.3749 22.6081 22.2257C22.6081 22.4906 22.6081 28.443 22.6081 28.443H18.5082V17.068H22.6081V18.6556C23.1362 17.7294 24.1941 17.068 26.1782 17.068C28.1624 17.068 29.75 18.6556 29.75 22.2257V28.443Z" fill="#74A9DB"/>
</svg>
