<svg width="77" height="116" viewBox="0 0 77 116" fill="none" xmlns="http://www.w3.org/2000/svg">
<path d="M44.6601 76.0271C45.8493 77.2895 46.8769 78.3628 47.3769 79.8112C47.8099 81.0614 47.4379 81.9884 46.2487 82.525C45.3138 82.9836 44.2382 83.0644 43.2453 82.7507C42.7762 82.5914 42.2975 82.462 41.8121 82.3634C40.7845 82.1622 40.4705 82.4183 40.3851 83.4794C40.3515 83.8697 40.3393 84.26 40.2875 84.6473C40.0954 86.0926 39.3728 86.7817 37.9274 86.9128C36.537 87.0348 36.4333 87.1964 36.8358 88.5716C37.034 89.2516 37.2322 89.9346 37.3755 90.6268C37.5143 91.2339 37.5291 91.8629 37.4191 92.4759C37.309 93.0889 37.0764 93.6734 36.7352 94.1944C36.1619 95.0847 35.5399 95.9538 35.299 97.024C35.1557 97.6705 35.2167 98.3047 35.7167 98.6889C37.2413 99.8598 37.0645 101.369 36.7047 102.958C36.3926 104.234 35.9754 105.482 35.4576 106.69C35.187 107.329 35.0719 108.023 35.1217 108.716C35.1715 109.408 35.3849 110.079 35.7442 110.672C36.4187 111.925 37.2463 113.088 38.2079 114.136C38.6958 114.661 38.5739 114.95 38.0921 115.313C36.9578 116.17 35.6801 116.076 34.433 115.826C32.0241 115.347 30.2922 113.88 28.981 111.877C26.9502 108.776 25.9318 105.263 24.9103 101.756C22.968 95.164 23.035 88.4192 23.3247 81.6621C23.6144 74.905 23.5809 68.4925 24.5139 61.8422C25.0872 57.7745 23.9285 54.1307 21.4647 50.865C19.7022 48.5263 18.2752 46.3705 16.3695 44.1567C13.5825 40.9428 11.1858 37.4881 9.66118 33.4845C7.91093 28.9594 8.27988 24.596 10.5515 20.3423C11.6386 18.3484 12.9669 16.4959 14.5064 14.8263C15.0735 14.2165 15.3144 14.3811 15.5462 15.0733C15.8785 16.0765 15.6925 17.0492 15.4303 18.0097C15.0842 19.2417 14.5427 20.4101 13.8264 21.4706C11.3291 25.2272 11.4175 29.0174 13.5215 32.9295C16.6988 38.8572 19.9431 44.4037 24.4468 49.3465C26.6819 51.7859 27.557 54.6003 27.7674 57.7593C28.115 62.9978 28.3498 67.9772 27.7918 73.1731C27.2643 78.0823 26.3038 82.955 26.2245 87.8977C26.1056 95.0726 27.5113 102.01 30.0909 108.7C30.6764 110.224 31.3655 111.727 32.8139 112.663C33.1188 112.856 33.4817 113.185 33.7713 112.996C34.1616 112.74 33.9177 112.255 33.7713 111.919C33.4832 111.195 33.1397 110.493 32.7438 109.822C31.7192 108.123 31.7558 106.467 32.8657 104.845C33.75 103.552 33.4939 102.101 33.3566 100.711C33.2393 99.6139 32.9651 98.5398 32.5425 97.5211C32.3135 97.0187 32.2414 96.459 32.3355 95.915C32.4296 95.371 32.6856 94.8681 33.07 94.4719C33.3172 94.168 33.5809 93.8779 33.8598 93.6028C35.1191 92.4197 35.5277 91.133 34.616 89.5077C34.2065 88.7115 34.024 87.818 34.0885 86.925C34.1433 85.2236 35.0032 84.318 36.6986 84.1807C38.2232 84.0435 38.4183 83.827 38.5281 82.2933C38.6562 80.4638 39.4002 79.799 41.2114 80.0216C42.2299 80.1466 43.2178 80.4729 44.2302 80.6467C45.4315 80.851 45.7243 80.4973 45.3919 79.3233C45.1083 78.3049 44.6357 77.3383 44.6601 76.0271Z" fill="#74A9DB"/>
<path d="M15.9547 10.6977C15.1619 7.76127 16.8299 5.26701 19.7785 4.69375C21.6263 4.33395 23.3857 4.67851 25.1329 5.19688C26.252 5.53229 27.3588 5.91039 28.4596 6.30069C30.4385 7.00506 32.4236 7.59356 34.558 7.55697C36.6925 7.52038 38.4793 8.41075 40.0039 9.88047C40.4887 10.347 41.001 10.7952 41.5133 11.2282C42.8029 12.3625 44.4149 13.0651 46.1237 13.2377C47.7209 13.3898 49.2608 13.9118 50.6213 14.7623C53.7711 16.7626 54.6127 19.9459 52.8533 23.2604C52.6917 23.5654 52.5088 23.8703 52.2679 24.2819C54.6127 24.4496 56.8691 24.5137 59.1042 24.785C63.1231 25.276 67.0962 26.0291 70.8742 27.5537C72.3368 28.1158 73.6691 28.9708 74.7894 30.0663C75.4048 30.6395 75.8485 31.3726 76.0709 32.1836C76.2933 32.9946 76.2856 33.8515 76.0487 34.6584C75.7168 36.0427 75.0931 37.3401 74.2192 38.4638C71.8103 41.5344 70.8193 45.1203 70.3497 48.9044C70.2705 49.5386 70.1485 50.1667 70.0631 50.801C69.6332 54.0697 69.3679 57.0214 66.3736 58.1618C64.8489 58.7411 63.7848 61.1073 62.3333 61.8605C61.768 62.1183 61.2776 62.516 60.9084 63.0158C60.5392 63.5157 60.3034 64.1014 60.2233 64.7176C59.5951 68.6999 56.0154 69.6421 53.7467 72.9779C52.844 74.3983 51.5214 75.5023 49.9627 76.1369C47.7825 76.9815 45.8859 76.4571 44.3277 74.4842C45.7212 74.902 47.0263 74.9904 48.3496 74.5483C49.9535 74.0116 51.2921 73.167 52.1276 71.6393C53.8962 68.401 57.3113 67.7363 57.4942 64.0163C57.5827 62.263 58.4578 60.9305 59.7415 59.8205C60.9612 58.7594 61.9186 56.1859 63.4646 55.7712C66.0076 55.0912 65.6936 52.3927 66.5321 50.0691C67.1555 48.2568 67.6397 46.3995 67.9805 44.5135C68.4186 42.098 69.3351 39.7944 70.676 37.7381C71.289 36.8259 71.8343 35.87 72.3073 34.878C73.2648 32.8533 72.8196 31.5817 70.8437 30.5847C68.7093 29.5083 66.3979 28.9411 64.0744 28.4502C59.9641 27.5568 55.7897 27.2305 51.6031 26.953C49.2705 26.7945 48.6363 25.4284 49.7492 23.3428C50.033 22.8495 50.2886 22.3405 50.5146 21.8182C51.6275 19.0525 50.6884 17.0431 47.8252 16.2381C45.773 15.6618 43.7331 15.0855 41.8426 14.0823C40.3155 13.3184 38.899 12.3511 37.6316 11.2069C37.1641 10.7624 36.5477 10.508 35.9027 10.4934C32.1644 10.3165 28.6395 9.27368 25.2091 7.86799C24.7822 7.69418 24.3584 7.51428 23.9224 7.36182C20.1657 6.02321 17.6898 7.0447 15.9547 10.6977Z" fill="#74A9DB"/>
<path d="M15.8146 14.0061C14.6284 12.2223 13.9241 11.9661 11.9756 12.6309C10.6588 13.1002 9.21699 13.0796 7.91407 12.5729C6.10894 11.893 5.36188 10.7648 5.36493 8.8346C5.36493 7.09655 5.4625 5.34935 5.0783 3.65094C4.74594 2.17816 4.32514 1.82141 2.83103 1.72688C2.09007 1.67199 1.33386 1.72688 0.653888 1.33353C0.303228 1.13533 -0.0565796 0.83041 0.00745396 0.443159C0.0714875 0.0559087 0.544116 0.248009 0.833791 0.202271C2.37525 -0.0773165 3.95533 -0.0669755 5.49299 0.232763C7.0176 0.552931 7.5939 1.2756 7.62745 2.79411C7.61206 4.57152 7.83146 6.34319 8.27998 8.06315C8.78005 9.80121 9.24963 10.0787 11.0243 9.8256C11.6861 9.69039 12.362 9.63714 13.0368 9.66704C15.6103 9.91403 16.586 11.3837 15.8146 14.0061Z" fill="#74A9DB"/>
<path d="M21.2362 31.286C22.3387 30.7073 23.4858 30.2179 24.6665 29.8224C27.2828 28.9533 27.9383 28.8771 29.5788 30.1273C31.2193 31.3775 36.0645 35.1615 38.5283 40.6471C41.0195 46.1814 39.4735 51.3193 38.4551 54.8503C37.4184 58.4271 36.7933 60.6438 35.5126 59.8754C34.9092 59.5544 34.3819 59.1072 33.9666 58.5643C23.6298 45.6295 9.65523 37.2777 21.2362 31.286ZM33.5245 55.5181C33.7643 55.8291 34.0979 56.0547 34.4759 56.1615C36.0005 56.4115 41.2085 49.8069 36.9915 40.7629C33.3111 32.8685 26.9107 30.1608 22.9803 31.1793C22.3316 31.3307 21.6963 31.5347 21.0806 31.7891C22.0686 34.7346 31.9511 43.7756 33.5245 55.5181Z" fill="#009540"/>
<path d="M35.9365 29.1973C35.6468 30.0236 35.5919 31.0268 34.8113 30.9536C34.1192 30.8896 33.3081 29.862 33.5916 29.0753C33.8752 28.2886 35.2108 27.5263 35.9426 27.5507C36.6744 27.5751 36.2384 28.3343 35.9365 29.1973ZM41.6721 60.3877C38.1319 49.7978 43.0747 44.2726 36.2048 35.2134C36.653 35.2835 37.208 35.3384 37.888 35.4238C44.2608 44.5043 39.6596 49.9136 42.6326 60.4853C42.2697 60.4517 42.0746 60.4334 41.6721 60.3877Z" fill="#009540"/>
<path d="M41.2023 35.8415C44.8187 41.0404 46.1177 43.0285 46.1908 48.8068C46.1856 51.1114 46.0031 53.4122 45.645 55.6889H45.6694C46.139 53.4172 46.6269 51.1852 47.0233 48.9196C47.9777 43.3182 47.1636 41.4734 45.8249 36.4422L47.4258 36.6617C49.1547 45.599 45.5688 50.243 45.2303 60.6591L44.8004 60.6408C43.3368 50.1393 46.7184 44.8885 39.5161 35.6372L41.2023 35.8415Z" fill="#009540"/>
<path d="M50.7496 30.0571C50.3349 31.2128 49.8348 32.4691 49.1579 32.3959C48.5481 32.3319 48.1059 31.0359 48.5237 29.923C48.9414 28.81 50.0483 28.0934 50.6795 28.1148C51.3106 28.1361 51.1795 28.8557 50.7496 30.0571ZM47.9138 60.8786C49.2036 50.5113 51.4753 46.0015 48.8743 36.863L50.4203 37.0764C52.5547 46.2241 50.6215 50.6272 48.7828 60.9731L47.9138 60.8786Z" fill="#009540"/>
<path d="M51.765 56.1981C51.765 57.1586 51.9144 58.1953 52.4114 58.2288C53.1341 58.2807 54.2623 56.5365 55.0124 54.4478C55.8021 52.2554 55.7686 51.0937 55.1099 49.874C54.2501 48.2487 53.9147 46.0228 53.6555 43.062C53.3109 39.0767 53.7317 37.0063 55.7381 37.2411C56.6803 37.3508 57.5066 38.1833 58.0585 38.8724C58.0105 39.6913 57.9086 40.5062 57.7536 41.3118C57.467 40.7355 56.8663 39.903 56.0826 39.8085C55.1679 39.7018 54.7684 40.9611 54.9118 42.7724C55.0734 44.7848 55.3935 45.8978 56.2321 47.0413C57.3481 48.5659 57.6652 50.4259 56.2595 54.1215C54.6038 58.485 52.137 61.8239 51.0423 61.7446C50.5361 61.711 50.2007 61.028 50.2434 59.8846C50.8624 58.3874 51.1795 57.6495 51.765 56.1981Z" fill="#009540"/>
<path d="M60.3513 50.5235C58.8267 54.2709 57.3021 56.7103 54.5151 61.1439C54.1706 61.1866 53.9968 61.2018 53.6431 61.2232C61.7113 47.0504 62.4309 36.0732 66.1449 29.3009C66.8919 29.5631 67.7762 29.987 68.136 30.0815C67.4408 37.0947 70.054 48.1085 58.9609 59.4943C58.6854 59.6832 58.3993 59.8563 58.1041 60.0126C61.2814 56.1919 62.1992 54.0727 63.1658 50.7003C61.9766 50.7369 61.4094 50.5966 60.3513 50.5235ZM63.7573 48.1756C64.108 45.5166 64.0622 43.1748 64.6721 40.0128C65.0319 38.2199 65.5503 35.1341 66.0686 32.9356L66.0198 32.9203C65.0146 35.0547 64.121 37.2399 63.3426 39.467C62.2632 42.5833 62.1595 44.8062 61.2844 47.7304C62.2144 47.8859 62.7877 48.1024 63.7573 48.1756Z" fill="#009540"/>
<path d="M22.8798 22.0407C21.6875 23.6904 21.1082 26.0047 23.1085 27.5293C22.3187 27.569 21.9955 27.5049 19.5135 27.0842C16.2935 25.0473 25.1149 13.4938 25.496 10.2921C27.1777 10.6501 28.8372 11.1052 30.4662 11.6551C39.8914 17.5279 42.0533 24.6997 43.4925 24.8064C42.0716 25.7212 41.1598 25.8919 39.3547 26.081C38.1045 25.0595 37.4063 22.7268 35.9396 21.4492C30.5913 21.1687 27.0969 21.0711 22.8798 22.0407ZM34.9913 20.2356C33.5581 18.3603 32.8812 17.3389 31.2163 15.2837C30.2711 14.1158 29.5362 13.1035 28.6916 12.2101L28.5879 12.1826C28.3077 13.037 27.8906 13.8403 27.353 14.561C26.0102 16.3645 24.8083 18.2688 23.758 20.257C28.0787 19.7233 30.4449 19.8057 34.9913 20.2356Z" fill="#009540"/>
</svg>
