<svg id="Camada_1" data-name="Camada 1" xmlns="http://www.w3.org/2000/svg" viewBox="0 0 1000 1000"><defs><style>.cls-1{fill:#1d1d1b;}</style></defs><path class="cls-1" d="M339.12,441.55a14.89,14.89,0,0,1-7.1-2.3q-7-4.1-10.6-13l-1.21-2.9a13.37,13.37,0,0,0-2,2.88,39.87,39.87,0,0,1-5.09,6.71,9.3,9.3,0,0,1-7.4,2.78,16.93,16.93,0,0,1-5.39-1.43q-11.25-5.1-13.13-18.93a31.74,31.74,0,0,1,2.13-15.07q5.9-14.82,19.59-13.89a35,35,0,0,1,9.31,2.4l2.55.93c.14,0,.41-.61.83-1.86a54.82,54.82,0,0,1,13.08-22q5.77-5.55,12.24-5.11a13.38,13.38,0,0,1,8,3.21,9.74,9.74,0,0,1,3,3.88,11.74,11.74,0,0,1,.52,4.87,23.54,23.54,0,0,1-3.64,10.64A33.84,33.84,0,0,1,341.81,396l-2.52,1.54q-.77,3.78-1.5,8.72-.56,3.64-1.05,11.06c-.4,5.92-.51,9.48-.32,10.66a27,27,0,0,0,1.64,8.48q4.31-.31,10.63-7.44a35.46,35.46,0,0,0,5.62-9.24l1.75-4.32a1.34,1.34,0,0,1,1.13-.33l.75.11c1.85.49,3,1,3.37,1.63l0,.16c-.05.6-1.11,3.17-3.2,7.69q-5.26,10.83-12.72,15.21A10.67,10.67,0,0,1,339.12,441.55Zm-33.79-12.87,1.48-1q5-3.24,10.17-11.86l1.6-2.71c-.06-2.12,0-3.95.07-5.49l.77-11.38q-.81-.76-1.05-.78-4.12-.28-7.92,6.82a40.65,40.65,0,0,0-5.16,18A41.71,41.71,0,0,0,305.33,428.68Zm35.9-39c.33,0,1-.47,1.92-1.49a26.78,26.78,0,0,0,8.52-12.72,23.17,23.17,0,0,0,.62-4.69,6.52,6.52,0,0,0-.15-2.33,14.1,14.1,0,0,0-5.11,5.6,108.88,108.88,0,0,0-4.73,11.72A19.87,19.87,0,0,0,341.23,389.7Z"/><path class="cls-1" d="M374.07,447.8q-6-.41-11.64-5.17-3.06-2.53-5.55-8.44a28,28,0,0,1-2-13q1.29-19.15,10.51-27.9a35.49,35.49,0,0,1,6.34-4.41,15.51,15.51,0,0,1,6.83-1.15,16.24,16.24,0,0,1,8.06,3q4.69,3.54,5.74,7.44a10.4,10.4,0,0,1,.24,3.19,13,13,0,0,1-.81,3.83q-4.39,9.67-16.16,16.79a2.57,2.57,0,0,0-.74.6,23.51,23.51,0,0,0-.52,4.65,30.94,30.94,0,0,0,.33,6.27c.48,3.39.89,5.89,1.26,7.49.07.95.3,1.44.7,1.46q5.07.35,16.62-18.47a43.49,43.49,0,0,1,3.31-5,1.35,1.35,0,0,1,.79-.51c2,.24,3,.81,3,1.72,0,.13-.56,1.25-1.64,3.36q-3.12,6-4.72,8.75Q387,443.9,381.6,446.65A15.44,15.44,0,0,1,374.07,447.8Zm1.9-31.66,1.42-1a31.44,31.44,0,0,0,9.49-12.05,9.79,9.79,0,0,0,.77-3.27c.15-2.11-.14-3.57-.86-4.39a.7.7,0,0,0-.48-.29c-.2,0-.52.29-1,.79a9.67,9.67,0,0,0-2,2.39,67.4,67.4,0,0,0-3.43,6.82,76,76,0,0,0-3.1,7.75,18.5,18.5,0,0,1-.56,1.93,3,3,0,0,0-.23.79.91.91,0,0,1-.13.44C375.92,416.1,375.93,416.13,376,416.14Z"/><path class="cls-1" d="M304.5,634.08l-3.79-.4a32.05,32.05,0,0,1-14.07-5.33,20.5,20.5,0,0,1-7.34-7.2q-3.23-6.78-1-28.44.27-4.55.93-10.8,3-28.12,10.42-75.18,5.65-35.82,6.45-43.32.22-2.25,0-2.28c-.34,0-4.85-1.24-13.53-3.6q-27.76-7.29-42.75-8.88a70.78,70.78,0,0,0-9.81-.46,45.36,45.36,0,0,0-9,1.39q-12,2.67-12.64,8.73c-.12,1.1.43,2.43,1.65,4q5,6.14,15,7.19a30.92,30.92,0,0,0,9.61-.54,11,11,0,0,1,2.42-.37c1.1.12,2.12,1.06,3.08,2.82a8.08,8.08,0,0,1,1.24,4.49c-.1.89-1,1.86-2.8,2.92a19.82,19.82,0,0,1-4.57,2,31.59,31.59,0,0,1-9.37.25q-11.08-1.17-18.84-12.26-7.31-10.43-6.34-19.55a14.7,14.7,0,0,1,1-4.06q5.35-10.53,26.55-11.72a80.59,80.59,0,0,1,13.34.47q7.4.78,22.18,3.69t61.16,15q28.11,7,49,9.22,35.31,3.72,36.39-6.54a9.66,9.66,0,0,1,1.11-3.67c.6-1.07,1.21-1.58,1.83-1.52a3.54,3.54,0,0,1,1.83,1.34q3.31,4,2.49,11.78Q415,476,400,479.26q-8.55,1.38-26.81-.55A243.71,243.71,0,0,1,340.5,473l-5-1.15-1.46,16.77q-1.15,10.88-3.61,26.28-6.72,43-8.6,60.84-2.87,27.1-2.94,35.7,0,2.61.1,7.9a73,73,0,0,1-.19,7.76,19.93,19.93,0,0,1-.43,2.14,5.41,5.41,0,0,1-2.6,2.94Q312.21,634.79,304.5,634.08Z"/><path class="cls-1" d="M384,618.4a30.88,30.88,0,0,1-5.54-.78q-18.18-4.36-26-22.09a58,58,0,0,1-4-24.46,78,78,0,0,1,4.79-22.82q7.68-18.64,20.37-20.33c1.32-.14,2.1-.66,2.35-1.54q1.55-4.26,11.75-3.79,10.92.51,18.27,6.85l1.59,1.31q19.8.82,39.61,1.45c3.5.16,5.29,1.79,5.35,4.9-.41,2.73-1.85,4.08-4.32,4q-33.82-1.59-33.85-1,5.88,11.45,5.15,26.9a84.62,84.62,0,0,1-3.17,19.07q-5.16,17.73-14.64,25.76A23.69,23.69,0,0,1,384,618.4Zm2-14.47q.92,0,4.37-2.9,8-7.06,12.54-20.69a70.87,70.87,0,0,0,3.36-18.86A57.79,57.79,0,0,0,406.1,551a38,38,0,0,0-2.41-8.28.17.17,0,0,1-.19-.21c-1-2.25-2-3.51-3.13-3.76a17.16,17.16,0,0,0-3.08-.46c-1.65-.08-2.48,0-2.48.09l.37,3.12a60.23,60.23,0,0,1-1.83,10.24q-7.34,26.52-8,40.85a68.75,68.75,0,0,0,.3,9.21C385.71,603.22,385.85,603.92,386.06,603.93Z"/><path class="cls-1" d="M545.61,614.82a30.56,30.56,0,0,1-14.93-3.44q-15-7.15-24-24.75l-3-5.73q-.4,0-3.6,6.26-5.39,10.22-9.23,14.62a19,19,0,0,1-14.63,7,34.45,34.45,0,0,1-11.29-2q-23.9-8.44-30.18-36.4a64.67,64.67,0,0,1-1.13-11,65.51,65.51,0,0,1,2.83-20.17q9.43-31.35,37.61-31.87,7.43-.13,19.46,3.26l5.39,1.45c.28,0,.74-1.32,1.38-3.95a112.27,112.27,0,0,1,22.87-47.27q10.83-12.39,24.13-12.63a27.39,27.39,0,0,1,16.92,5.17,19.93,19.93,0,0,1,6.74,7.41,24.21,24.21,0,0,1,1.94,9.87q.2,10.74-5.58,22.4-9.06,18.22-24.26,28.11l-4.89,3.59q-.88,7.86-1.52,18.09-.49,7.54-.21,22.82.34,18.27,1.23,21.86,1.64,10.9,4.85,17,8.75-1.41,20.44-17.1,5-6.39,9.85-19.89l2.83-9.14a2.66,2.66,0,0,1,2.25-.87l1.55.08q5.81,1,7.18,2.76l.1.31q0,1.85-5.17,16.29-8.87,23.09-23.34,33.36A21.92,21.92,0,0,1,545.61,614.82Zm-71.39-20.37,2.85-2.22q9.68-7.5,18.72-26l2.79-5.84q-.74-6.48-.83-11.23l-.42-23.42a6.1,6.1,0,0,0-2.3-1.41q-8.46.16-15,15.35-7.75,16.35-7.36,37.81Q472.88,588.9,474.22,594.45Zm66.55-86.06c.69,0,1.91-1.14,3.66-3.37q12.26-12.72,15.18-27.53.58-2.17.45-9.71a13.7,13.7,0,0,0-.71-4.74,29,29,0,0,0-9.48,12.36,221.64,221.64,0,0,0-7.59,24.81A41.37,41.37,0,0,0,540.77,508.39Z"/><path class="cls-1" d="M618.17,613.94a31.53,31.53,0,0,1-5.6.07q-18.63-1.59-29.05-17.94a57.83,57.83,0,0,1-7.65-23.58,78.48,78.48,0,0,1,1.31-23.28q4.82-19.59,17.1-23.15c1.27-.34,2-1,2.09-1.88.58-3,4.27-4.8,11-5.51q10.88-1.14,19.1,4l1.77,1.06q19.69-2.16,39.37-4.52,5.24-.54,6,4c0,2.76-1.21,4.31-3.67,4.63q-33.68,3.51-33.6,4.12,7.51,10.43,9.12,25.82a84.77,84.77,0,0,1-.27,19.33q-2.44,18.31-10.61,27.67A23.67,23.67,0,0,1,618.17,613.94ZM618,599.33c.61-.06,1.9-1.24,3.88-3.52q6.82-8.17,9.3-22.34a70.27,70.27,0,0,0,.49-19.14,56.7,56.7,0,0,0-1.8-10.3,38.51,38.51,0,0,0-3.61-7.82c-.14,0-.21,0-.23-.18-1.32-2.07-2.54-3.16-3.66-3.25a16.93,16.93,0,0,0-3.11,0c-1.64.17-2.46.33-2.44.46l.83,3a59.44,59.44,0,0,1-.26,10.4q-3.28,27.33-1.79,41.59a67.35,67.35,0,0,0,1.67,9.06C617.55,598.69,617.79,599.35,618,599.33Z"/><path class="cls-1" d="M751,605.12a34,34,0,0,1-4.09.65,30.2,30.2,0,0,1-12-1.91q-12.75-3.55-14.56-12.13c-.37-1.76,0-2.74,1.07-3a15.12,15.12,0,0,1,6.51-.1c3.71.91,5.84,2.71,6.41,5.4a5.28,5.28,0,0,0,2.25,2.7,4.71,4.71,0,0,0,3.82,1.09,26.4,26.4,0,0,0,3.91-1.45q4.11-2.55,6.86-10.51a34.25,34.25,0,0,0,1.25-18.19q-1.07-5-1.6-6.62a7.27,7.27,0,0,0-2.66-3.66,1.44,1.44,0,0,0-1.1-.19q-5.25,1.1-23.12,16.45-11,9.9-15.76,12.37a36.84,36.84,0,0,1-5.77,1.63q-14.19,1.71-26.94-6.79a33,33,0,0,1-13.35-20.4q-2.24-26.75,9.75-49.07,7.88-14.73,26.58-23.08a59.21,59.21,0,0,1,12.11-3.6q11.42-2.39,18.82-.78a43.06,43.06,0,0,1,12.43,5q4.47,2.22,8.21,8A33.11,33.11,0,0,1,755,509.19a57.26,57.26,0,0,1,.72,15.45q-1.32,10.83-5.16,11.63a7.31,7.31,0,0,1-3.22-.27,16.51,16.51,0,0,1-3.68-1.45c-1.11-.61-1.74-1.25-1.88-1.92s0-2.89.55-6.45a66.93,66.93,0,0,0-.78-18.81A29.85,29.85,0,0,0,737.44,497c-.74-1.17-1.36-1.82-1.87-1.92q-8.3,1.74-14.88,11.55-2.07,3.18-8.63,16.15Q702,544,703.3,564.52a30.38,30.38,0,0,0,.39,3.4l.21.48,16.55-9.59q12-7.57,17.57-8.74a24.56,24.56,0,0,1,6.19-.67,54,54,0,0,1,6.08.84q15,4.34,18.57,21.2a30.25,30.25,0,0,1-1.49,18Q762.35,602.75,751,605.12Z"/></svg>